<svg width="810" height="820" viewBox="0 0 810 820" fill="none" xmlns="http://www.w3.org/2000/svg">
<path d="M400.297 795.611L195.008 413.999C192.976 410.222 192.975 405.677 195.007 401.9L397.999 24.4163C402.573 15.9085 396.412 5.5969 386.754 5.59766L274.826 5.60645C271.687 5.60669 268.659 6.76322 266.319 8.85517L27.2589 222.576C24.5491 224.998 23 228.461 23 232.097V615.546C23 619.556 24.8839 623.336 28.0871 625.745L275.198 811.862C277.412 813.531 280.107 814.433 282.877 814.433H389.055C398.713 814.433 404.874 804.12 400.297 795.611Z" fill="#1A3CC1"/>
<path fill-rule="evenodd" clip-rule="evenodd" d="M585.388 5.55935C587.227 5.5805 589.005 6.19721 590.461 7.31352L782.063 153.977C786.348 157.259 786.536 163.655 782.45 167.183L645 285.834C641.962 288.458 637.497 288.6 634.297 286.175L516.231 196.73C514.755 195.61 512.95 195.005 511.095 195.005H354.944C348.5 195.005 344.394 188.119 347.456 182.447L380.364 121.484C381.85 118.731 384.726 117.015 387.853 117.015H539.066C540.884 117.015 542.654 117.598 544.118 118.678L609.296 166.783C611.79 168.622 612.977 171.693 612.977 174.79C612.977 193.022 627.752 207.803 645.979 207.803C664.205 207.803 678.985 193.021 678.985 174.79C678.985 156.558 664.21 141.778 645.979 141.777C643.408 141.777 640.906 142.073 638.506 142.632C635.663 143.292 632.608 142.963 630.263 141.231L560.868 90.0167C560.361 89.643 559.842 89.302 559.31 88.9934C558.57 88.5648 557.859 88.0829 557.187 87.5526C554.378 85.3298 550.825 84.0026 546.965 84.0022H414.868C408.424 84.0022 404.317 77.1164 407.379 71.4445L441.373 8.46912C442.876 5.68573 445.799 3.96439 448.964 4.00056L585.388 5.55935Z" fill="#1A3CC1"/>
<path fill-rule="evenodd" clip-rule="evenodd" d="M586.637 813.892C588.475 813.871 590.254 813.258 591.709 812.139L783.311 665.475C787.597 662.193 787.784 655.8 783.698 652.271L646.248 533.62C643.21 530.994 638.746 530.853 635.546 533.28L517.479 622.722C516.003 623.842 514.198 624.45 512.343 624.45H356.193C349.748 624.45 345.642 631.333 348.704 637.007L381.616 697.974C383.102 700.728 385.978 702.443 389.105 702.443H540.306C542.123 702.443 543.894 701.86 545.358 700.779L610.544 652.667C613.034 650.833 614.217 647.764 614.217 644.669C614.217 626.434 628.992 611.655 647.219 611.655C665.449 611.655 680.225 626.434 680.225 644.669C680.225 662.9 665.449 677.678 647.219 677.678C644.648 677.678 642.15 677.385 639.75 676.827C636.907 676.163 633.856 676.495 631.507 678.228L562.112 729.442C561.605 729.817 561.082 730.157 560.546 730.468C559.805 730.898 559.095 731.379 558.422 731.907C555.613 734.129 552.06 735.457 548.205 735.457H416.116C409.672 735.457 405.566 742.34 408.627 748.014L442.621 810.985C444.123 813.769 447.047 815.488 450.208 815.454L586.637 813.892Z" fill="#1A3CC1"/>
</svg>
