<svg width="810" height="1050" viewBox="0 0 810 1050" fill="none" xmlns="http://www.w3.org/2000/svg">
<path d="M804.001 1031.95C804.001 1035.16 802.828 1037.88 800.482 1040.1C798.137 1042.2 795.421 1043.25 792.335 1043.25C788.878 1043.25 786.1 1042.2 784.002 1040.1C781.903 1037.88 780.854 1035.16 780.854 1031.95V924.917C780.854 921.707 781.965 919.053 784.187 916.954C786.409 914.732 789.248 913.621 792.705 913.621C795.668 913.621 798.26 914.732 800.482 916.954C802.828 919.053 804.001 921.707 804.001 924.917V1031.95Z" fill="#1A3CC1"/>
<path d="M710.176 942.695L670.178 1036.77C669.314 1039.11 667.956 1040.96 666.104 1042.32C664.376 1043.56 662.462 1044.17 660.363 1044.17C657.03 1044.17 654.561 1043.25 652.956 1041.4C651.351 1039.55 650.549 1037.26 650.549 1034.55C650.549 1033.43 650.734 1032.26 651.104 1031.03L697.214 920.288C698.202 917.819 699.683 915.906 701.658 914.548C703.757 913.19 705.979 912.634 708.325 912.881C710.547 912.881 712.584 913.56 714.436 914.918C716.411 916.153 717.831 917.943 718.695 920.288L764.249 1028.8C764.866 1030.41 765.175 1031.89 765.175 1033.25C765.175 1036.58 764.064 1039.24 761.841 1041.21C759.743 1043.19 757.397 1044.17 754.805 1044.17C752.583 1044.17 750.546 1043.5 748.694 1042.14C746.965 1040.78 745.607 1038.93 744.62 1036.58L704.806 943.806L710.176 942.695ZM675.918 1014.18L686.103 992.879H736.102L739.62 1014.18H675.918Z" fill="#1A3CC1"/>
<path d="M572.443 1043.25C568.986 1043.25 566.147 1042.2 563.925 1040.1C561.703 1037.88 560.592 1035.16 560.592 1031.95V924.547H584.665V1031.95C584.665 1035.16 583.492 1037.88 581.147 1040.1C578.924 1042.2 576.023 1043.25 572.443 1043.25ZM531.519 934.917C528.309 934.917 525.593 933.929 523.371 931.954C521.272 929.979 520.223 927.386 520.223 924.176C520.223 920.967 521.272 918.436 523.371 916.584C525.593 914.609 528.309 913.621 531.519 913.621H613.738C616.948 913.621 619.602 914.609 621.701 916.584C623.923 918.559 625.034 921.152 625.034 924.362C625.034 927.571 623.923 930.164 621.701 932.139C619.602 933.991 616.948 934.917 613.738 934.917H531.519Z" fill="#1A3CC1"/>
<path d="M510.922 978.439C510.922 987.698 509.379 996.34 506.293 1004.36C503.206 1012.39 498.824 1019.49 493.145 1025.66C487.59 1031.71 480.923 1036.46 473.146 1039.92C465.492 1043.38 457.097 1045.1 447.961 1045.1C438.826 1045.1 430.431 1043.38 422.777 1039.92C415.123 1036.46 408.456 1031.71 402.778 1025.66C397.222 1019.49 392.901 1012.39 389.815 1004.36C386.729 996.34 385.186 987.698 385.186 978.439C385.186 969.18 386.729 960.538 389.815 952.513C392.901 944.489 397.222 937.452 402.778 931.403C408.456 925.23 415.123 920.415 422.777 916.959C430.431 913.502 438.826 911.773 447.961 911.773C457.097 911.773 465.492 913.502 473.146 916.959C480.923 920.415 487.59 925.23 493.145 931.403C498.824 937.452 503.206 944.489 506.293 952.513C509.379 960.538 510.922 969.18 510.922 978.439ZM486.849 978.439C486.849 970.167 485.182 962.698 481.849 956.032C478.516 949.242 473.948 943.872 468.146 939.921C462.343 935.97 455.615 933.995 447.961 933.995C440.307 933.995 433.579 935.97 427.777 939.921C421.974 943.872 417.407 949.18 414.073 955.847C410.864 962.513 409.259 970.044 409.259 978.439C409.259 986.71 410.864 994.241 414.073 1001.03C417.407 1007.7 421.974 1013.01 427.777 1016.96C433.579 1020.91 440.307 1022.88 447.961 1022.88C455.615 1022.88 462.343 1020.91 468.146 1016.96C473.948 1013.01 478.516 1007.7 481.849 1001.03C485.182 994.241 486.849 986.71 486.849 978.439Z" fill="#1A3CC1"/>
<path d="M368.824 913.066C371.664 913.066 374.195 914.177 376.417 916.4C378.762 918.498 379.935 921.214 379.935 924.548C379.935 925.659 379.75 926.832 379.38 928.066C379.133 929.177 378.639 930.288 377.898 931.399L335.862 991.583L339.196 978.806V1031.95C339.196 1035.16 338.085 1037.88 335.862 1040.1C333.764 1042.2 331.295 1043.25 328.455 1043.25C325.369 1043.25 322.715 1042.2 320.493 1040.1C318.394 1037.88 317.345 1035.16 317.345 1031.95V980.287L318.826 986.213L278.827 933.066C277.593 931.461 276.729 929.918 276.235 928.436C275.741 926.955 275.494 925.597 275.494 924.362C275.494 921.029 276.79 918.313 279.383 916.214C281.975 914.116 284.63 913.066 287.346 913.066C290.802 913.066 293.827 914.795 296.419 918.251L331.974 967.324L326.789 966.584L359.565 918.622C362.158 914.918 365.244 913.066 368.824 913.066Z" fill="#1A3CC1"/>
<path d="M269.865 978.439C269.865 987.698 268.322 996.34 265.236 1004.36C262.15 1012.39 257.767 1019.49 252.088 1025.66C246.533 1031.71 239.866 1036.46 232.089 1039.92C224.435 1043.38 216.04 1045.1 206.905 1045.1C197.769 1045.1 189.374 1043.38 181.72 1039.92C174.066 1036.46 167.4 1031.71 161.721 1025.66C156.166 1019.49 151.845 1012.39 148.758 1004.36C145.672 996.34 144.129 987.698 144.129 978.439C144.129 969.18 145.672 960.538 148.758 952.513C151.845 944.489 156.166 937.452 161.721 931.403C167.4 925.23 174.066 920.415 181.72 916.959C189.374 913.502 197.769 911.773 206.905 911.773C216.04 911.773 224.435 913.502 232.089 916.959C239.866 920.415 246.533 925.23 252.088 931.403C257.767 937.452 262.15 944.489 265.236 952.513C268.322 960.538 269.865 969.18 269.865 978.439ZM245.792 978.439C245.792 970.167 244.126 962.698 240.792 956.032C237.459 949.242 232.891 943.872 227.089 939.921C221.287 935.97 214.559 933.995 206.905 933.995C199.251 933.995 192.522 935.97 186.72 939.921C180.918 943.872 176.35 949.18 173.017 955.847C169.807 962.513 168.202 970.044 168.202 978.439C168.202 986.71 169.807 994.241 173.017 1001.03C176.35 1007.7 180.918 1013.01 186.72 1016.96C192.522 1020.91 199.251 1022.88 206.905 1022.88C214.559 1022.88 221.287 1020.91 227.089 1016.96C232.891 1013.01 237.459 1007.7 240.792 1001.03C244.126 994.241 245.792 986.71 245.792 978.439Z" fill="#1A3CC1"/>
<path d="M400.297 795.611L195.008 413.999C192.976 410.222 192.975 405.677 195.007 401.9L397.999 24.4163C402.573 15.9085 396.412 5.5969 386.754 5.59766L274.826 5.60645C271.687 5.60669 268.659 6.76322 266.319 8.85517L27.2589 222.576C24.5491 224.998 23 228.461 23 232.097V615.546C23 619.556 24.8839 623.336 28.0871 625.745L275.198 811.862C277.412 813.531 280.107 814.433 282.877 814.433H389.055C398.713 814.433 404.874 804.12 400.297 795.611Z" fill="#1A3CC1"/>
<path d="M585.388 5.55935C587.227 5.5805 589.005 6.19721 590.461 7.31352L782.063 153.977C786.348 157.259 786.536 163.655 782.45 167.183L645 285.834C641.962 288.458 637.497 288.6 634.297 286.175L516.231 196.73C514.755 195.61 512.95 195.005 511.095 195.005H354.944C348.5 195.005 344.394 188.119 347.456 182.447L380.364 121.484C381.85 118.731 384.726 117.015 387.853 117.015H539.066C540.884 117.015 542.654 117.598 544.118 118.678L609.296 166.783C611.79 168.622 612.977 171.693 612.977 174.79C612.977 193.022 627.752 207.803 645.979 207.803C664.205 207.803 678.985 193.021 678.985 174.79C678.985 156.558 664.21 141.778 645.979 141.777C643.408 141.777 640.906 142.073 638.506 142.632C635.663 143.292 632.608 142.963 630.263 141.231L560.868 90.0167C560.361 89.643 559.842 89.302 559.31 88.9934C558.57 88.5648 557.859 88.0829 557.187 87.5526C554.378 85.3298 550.825 84.0026 546.965 84.0022H414.868C408.424 84.0022 404.317 77.1164 407.379 71.4445L441.373 8.46912C442.876 5.68573 445.799 3.96439 448.964 4.00056L585.388 5.55935Z" fill="#1A3CC1"/>
<path d="M586.637 813.892C588.475 813.871 590.254 813.258 591.709 812.139L783.311 665.475C787.597 662.193 787.784 655.8 783.698 652.271L646.248 533.62C643.21 530.994 638.746 530.853 635.546 533.28L517.479 622.722C516.003 623.842 514.198 624.45 512.343 624.45H356.193C349.748 624.45 345.642 631.333 348.704 637.007L381.616 697.974C383.102 700.728 385.978 702.443 389.105 702.443H540.306C542.123 702.443 543.894 701.86 545.358 700.779L610.544 652.667C613.034 650.833 614.217 647.764 614.217 644.669C614.217 626.434 628.992 611.655 647.219 611.655C665.449 611.655 680.225 626.434 680.225 644.669C680.225 662.9 665.449 677.678 647.219 677.678C644.648 677.678 642.15 677.385 639.75 676.827C636.907 676.163 633.856 676.495 631.507 678.228L562.112 729.442C561.605 729.817 561.082 730.157 560.546 730.468C559.805 730.898 559.095 731.379 558.422 731.907C555.613 734.129 552.06 735.457 548.205 735.457H416.116C409.672 735.457 405.566 742.34 408.627 748.014L442.621 810.985C444.123 813.769 447.047 815.488 450.208 815.454L586.637 813.892Z" fill="#1A3CC1"/>
<g clip-path="url(#clip0_5329_40267)">
<path d="M67.0619 1040.5L33.2937 978.073C32.9595 977.455 32.9594 976.711 33.2936 976.093L66.6839 914.34C67.4364 912.948 66.4229 911.262 64.8342 911.262L46.4231 911.263C45.9068 911.263 45.4086 911.452 45.0238 911.795L5.70055 946.758C5.25481 947.154 5 947.72 5 948.315V1011.04C5 1011.7 5.30988 1012.32 5.83678 1012.71L46.4842 1043.16C46.8484 1043.43 47.2918 1043.58 47.7475 1043.58H65.2127C66.8014 1043.58 67.8148 1041.89 67.0619 1040.5Z" fill="#1A3CC1"/>
<path d="M97.507 911.255C97.8094 911.259 98.102 911.359 98.3414 911.542L129.858 935.535C130.563 936.072 130.594 937.118 129.922 937.695L107.313 957.106C106.813 957.535 106.078 957.558 105.552 957.162L86.1313 942.529C85.8884 942.346 85.5916 942.247 85.2864 942.247H59.6011C58.5411 942.247 57.8656 941.12 58.3693 940.192L63.7824 930.219C64.0268 929.769 64.4998 929.488 65.0143 929.488H89.8875C90.1864 929.488 90.4776 929.584 90.7184 929.76L101.44 937.63C101.85 937.931 102.045 938.433 102.045 938.94C102.045 941.922 104.475 944.341 107.474 944.341C110.472 944.34 112.903 941.922 112.903 938.94C112.903 935.957 110.472 933.539 107.474 933.539C107.051 933.539 106.639 933.588 106.244 933.679C105.777 933.787 105.274 933.733 104.889 933.45L93.4736 925.072C93.3903 925.01 93.3049 924.955 93.2174 924.904C93.0956 924.834 92.9787 924.755 92.8681 924.669C92.4061 924.305 91.8216 924.088 91.1867 924.088H69.458C68.398 924.088 67.7225 922.961 68.2261 922.033L73.8178 911.731C74.065 911.276 74.5459 910.994 75.0664 911L97.507 911.255Z" fill="#1A3CC1"/>
<path d="M97.7121 1043.49C98.0145 1043.49 98.3071 1043.39 98.5465 1043.21L130.063 1019.21C130.768 1018.68 130.799 1017.63 130.127 1017.05L107.518 997.643C107.018 997.214 106.284 997.191 105.757 997.587L86.3364 1012.22C86.0935 1012.4 85.7967 1012.5 85.4915 1012.5H59.8062C58.7461 1012.5 58.0708 1013.63 58.5743 1014.56L63.9881 1024.53C64.2325 1024.98 64.7056 1025.26 65.22 1025.26H90.0912C90.3901 1025.26 90.6813 1025.17 90.9221 1024.99L101.645 1017.12C102.054 1016.82 102.249 1016.32 102.249 1015.81C102.249 1012.83 104.679 1010.41 107.677 1010.41C110.676 1010.41 113.107 1012.83 113.107 1015.81C113.107 1018.79 110.676 1021.21 107.677 1021.21C107.255 1021.21 106.844 1021.16 106.449 1021.07C105.981 1020.96 105.479 1021.02 105.093 1021.3L93.678 1029.68C93.5947 1029.74 93.5086 1029.8 93.4204 1029.85C93.2986 1029.92 93.1817 1029.99 93.0711 1030.08C92.6091 1030.44 92.0246 1030.66 91.3904 1030.66H69.6631C68.6031 1030.66 67.9276 1031.79 68.4313 1032.72L74.0229 1043.02C74.27 1043.47 74.751 1043.75 75.2708 1043.75L97.7121 1043.49Z" fill="#1A3CC1"/>
</g>
<defs>
<clipPath id="clip0_5329_40267">
<rect width="126" height="133" fill="white" transform="translate(5 911)"/>
</clipPath>
</defs>
</svg>
