<svg width="1160" height="200" viewBox="0 0 1160 200" fill="none" xmlns="http://www.w3.org/2000/svg">
<path d="M1156 177.685C1156 182.351 1154.3 186.298 1150.89 189.528C1147.48 192.579 1143.53 194.104 1139.04 194.104C1134.02 194.104 1129.98 192.579 1126.93 189.528C1123.88 186.298 1122.36 182.351 1122.36 177.685V22.1102C1122.36 17.4448 1123.97 13.5868 1127.2 10.5363C1130.43 7.30637 1134.56 5.69141 1139.58 5.69141C1143.89 5.69141 1147.66 7.30637 1150.89 10.5363C1154.3 13.5868 1156 17.4448 1156 22.1102V177.685Z" fill="#1A3CC1"/>
<path d="M1019.63 47.9451L961.488 184.679C960.232 188.088 958.258 190.78 955.567 192.754C953.054 194.548 950.273 195.445 947.223 195.445C942.378 195.445 938.789 194.099 936.456 191.408C934.123 188.716 932.957 185.397 932.957 181.449C932.957 179.834 933.226 178.129 933.765 176.335L1000.79 15.3766C1002.22 11.7878 1004.37 9.00646 1007.25 7.03261C1010.3 5.05877 1013.53 4.25128 1016.94 4.61016C1020.17 4.61016 1023.13 5.59709 1025.82 7.57094C1028.69 9.36535 1030.75 11.9672 1032.01 15.3766L1098.22 173.105C1099.12 175.438 1099.57 177.591 1099.57 179.565C1099.57 184.41 1097.95 188.268 1094.72 191.139C1091.67 194.01 1088.26 195.445 1084.49 195.445C1081.26 195.445 1078.3 194.458 1075.61 192.485C1073.1 190.511 1071.13 187.819 1069.69 184.41L1011.82 49.5601L1019.63 47.9451ZM969.832 151.841L984.636 120.888H1057.31L1062.42 151.841H969.832Z" fill="#1A3CC1"/>
<path d="M814.315 194.104C809.291 194.104 805.164 192.579 801.934 189.528C798.704 186.298 797.089 182.351 797.089 177.685V21.5719H832.08V177.685C832.08 182.351 830.375 186.298 826.966 189.528C823.736 192.579 819.519 194.104 814.315 194.104ZM754.831 36.6449C750.165 36.6449 746.218 35.2094 742.988 32.3383C739.937 29.4673 738.412 25.699 738.412 21.0336C738.412 16.3681 739.937 12.6896 742.988 9.99799C746.218 7.12694 750.165 5.69141 754.831 5.69141H874.338C879.004 5.69141 882.862 7.12694 885.912 9.99799C889.142 12.869 890.757 16.6373 890.757 21.3027C890.757 25.9682 889.142 29.7365 885.912 32.6075C882.862 35.2991 879.004 36.6449 874.338 36.6449H754.831Z" fill="#1A3CC1"/>
<path d="M724.889 99.8979C724.889 113.356 722.646 125.917 718.16 137.58C713.674 149.244 707.304 159.562 699.05 168.534C690.975 177.327 681.285 184.235 669.98 189.259C658.855 194.284 646.653 196.796 633.374 196.796C620.096 196.796 607.894 194.284 596.769 189.259C585.643 184.235 575.953 177.327 567.699 168.534C559.624 159.562 553.344 149.244 548.858 137.58C544.372 125.917 542.129 113.356 542.129 99.8979C542.129 86.4399 544.372 73.8791 548.858 62.2154C553.344 50.5518 559.624 40.3237 567.699 31.5311C575.953 22.559 585.643 15.5608 596.769 10.5365C607.894 5.51217 620.096 3 633.374 3C646.653 3 658.855 5.51217 669.98 10.5365C681.285 15.5608 690.975 22.559 699.05 31.5311C707.304 40.3237 713.674 50.5518 718.16 62.2154C722.646 73.8791 724.889 86.4399 724.889 99.8979ZM689.898 99.8979C689.898 87.8754 687.476 77.0193 682.631 67.3295C677.786 57.4602 671.147 49.6546 662.713 43.9125C654.279 38.1704 644.5 35.2993 633.374 35.2993C622.249 35.2993 612.47 38.1704 604.036 43.9125C595.602 49.6546 588.963 57.3705 584.118 67.0603C579.453 76.7501 577.12 87.696 577.12 99.8979C577.12 111.92 579.453 122.866 584.118 132.736C588.963 142.425 595.602 150.141 604.036 155.883C612.47 161.626 622.249 164.497 633.374 164.497C644.5 164.497 654.279 161.626 662.713 155.883C671.147 150.141 677.786 142.425 682.631 132.736C687.476 122.866 689.898 111.92 689.898 99.8979Z" fill="#1A3CC1"/>
<path d="M518.35 4.88672C522.478 4.88672 526.156 6.50168 529.386 9.7316C532.795 12.7821 534.5 16.7298 534.5 21.5747C534.5 23.1897 534.231 24.8943 533.693 26.6887C533.334 28.3037 532.616 29.9187 531.539 31.5336L470.44 119.011L475.285 100.439V177.688C475.285 182.353 473.67 186.301 470.44 189.531C467.389 192.582 463.801 194.107 459.673 194.107C455.187 194.107 451.329 192.582 448.099 189.531C445.049 186.301 443.524 182.353 443.524 177.688V102.592L445.677 111.205L387.538 33.9561C385.744 31.6234 384.488 29.3804 383.77 27.2271C383.052 25.0738 382.693 23.0999 382.693 21.3055C382.693 16.4606 384.577 12.5129 388.346 9.46244C392.114 6.41196 395.972 4.88672 399.92 4.88672C404.944 4.88672 409.34 7.39888 413.109 12.4232L464.787 83.7509L457.251 82.6742L504.892 12.9615C508.661 7.57832 513.147 4.88672 518.35 4.88672Z" fill="#1A3CC1"/>
<path d="M374.51 99.8979C374.51 113.356 372.267 125.917 367.781 137.58C363.295 149.244 356.925 159.562 348.671 168.534C340.596 177.327 330.906 184.235 319.601 189.259C308.476 194.284 296.274 196.796 282.996 196.796C269.717 196.796 257.515 194.284 246.39 189.259C235.264 184.235 225.575 177.327 217.32 168.534C209.245 159.562 202.965 149.244 198.479 137.58C193.993 125.917 191.75 113.356 191.75 99.8979C191.75 86.4399 193.993 73.8791 198.479 62.2154C202.965 50.5518 209.245 40.3237 217.32 31.5311C225.575 22.559 235.264 15.5608 246.39 10.5365C257.515 5.51217 269.717 3 282.996 3C296.274 3 308.476 5.51217 319.601 10.5365C330.906 15.5608 340.596 22.559 348.671 31.5311C356.925 40.3237 363.295 50.5518 367.781 62.2154C372.267 73.8791 374.51 86.4399 374.51 99.8979ZM339.519 99.8979C339.519 87.8754 337.097 77.0193 332.252 67.3295C327.407 57.4602 320.768 49.6546 312.334 43.9125C303.9 38.1704 294.121 35.2993 282.996 35.2993C271.87 35.2993 262.091 38.1704 253.657 43.9125C245.223 49.6546 238.584 57.3705 233.739 67.0603C229.074 76.7501 226.741 87.696 226.741 99.8979C226.741 111.92 229.074 122.866 233.739 132.736C238.584 142.425 245.223 150.141 253.657 155.883C262.091 161.626 271.87 164.497 282.996 164.497C294.121 164.497 303.9 161.626 312.334 155.883C320.768 150.141 327.407 142.425 332.252 132.736C337.097 122.866 339.519 111.92 339.519 99.8979Z" fill="#1A3CC1"/>
<path d="M92.6599 188.975L44.4196 99.3222C43.9421 98.4348 43.942 97.367 44.4194 96.4796L92.1198 7.79649C93.1948 5.79775 91.747 3.37522 89.4775 3.37539L63.1758 3.37746C62.4383 3.37752 61.7266 3.64922 61.1768 4.14069L5.00078 54.3506C4.36401 54.9197 4 55.7333 4 56.5873V146.672C4 147.614 4.44269 148.502 5.1954 149.068L63.2632 192.793C63.7834 193.185 64.4168 193.397 65.0678 193.397H90.0181C92.2877 193.397 93.7354 190.974 92.6599 188.975Z" fill="#1A3CC1"/>
<path fill-rule="evenodd" clip-rule="evenodd" d="M136.154 3.36634C136.586 3.37131 137.004 3.5162 137.346 3.77845L182.37 38.2345C183.377 39.0056 183.421 40.5081 182.461 41.337L150.162 69.212C149.448 69.8284 148.399 69.8617 147.647 69.2921L119.903 48.2785C119.556 48.0154 119.132 47.8732 118.696 47.8732H82.0027C80.4884 47.8732 79.5235 46.2555 80.243 44.923L87.976 30.6007C88.3251 29.954 89.0009 29.5509 89.7358 29.5509H125.269C125.696 29.5509 126.112 29.6878 126.456 29.9416L141.772 41.243C142.358 41.675 142.637 42.3966 142.637 43.1242C142.637 47.4073 146.109 50.88 150.392 50.88C154.675 50.8798 158.148 47.4072 158.148 43.1242C158.148 38.8408 154.676 35.3685 150.392 35.3683C149.788 35.3683 149.2 35.4379 148.636 35.5691C147.968 35.7243 147.25 35.647 146.699 35.2401L130.392 23.2081C130.273 23.1203 130.151 23.0402 130.026 22.9677C129.852 22.867 129.685 22.7538 129.527 22.6292C128.867 22.107 128.032 21.7952 127.125 21.7951H96.084C94.5697 21.7951 93.6047 20.1774 94.3241 18.8449L102.312 4.04994C102.665 3.39603 103.352 2.99163 104.096 3.00013L136.154 3.36634Z" fill="#1A3CC1"/>
<path fill-rule="evenodd" clip-rule="evenodd" d="M136.447 193.27C136.879 193.265 137.297 193.121 137.639 192.858L182.663 158.402C183.67 157.631 183.714 156.129 182.754 155.3L150.455 127.425C149.741 126.808 148.692 126.775 147.94 127.345L120.196 148.358C119.849 148.621 119.425 148.764 118.989 148.764H82.2957C80.7813 148.764 79.8165 150.381 80.5359 151.714L88.2699 166.037C88.6191 166.684 89.2948 167.087 90.0297 167.087H125.56C125.987 167.087 126.403 166.95 126.747 166.696L142.065 155.393C142.65 154.962 142.928 154.241 142.928 153.514C142.928 149.23 146.4 145.758 150.683 145.758C154.967 145.758 158.439 149.23 158.439 153.514C158.439 157.797 154.967 161.269 150.683 161.269C150.079 161.269 149.492 161.2 148.928 161.069C148.26 160.913 147.543 160.991 146.991 161.398L130.684 173.43C130.565 173.518 130.442 173.598 130.316 173.671C130.142 173.772 129.975 173.885 129.817 174.009C129.157 174.531 128.322 174.843 127.416 174.843H96.377C94.8627 174.843 93.8977 176.46 94.6172 177.793L102.605 192.587C102.958 193.241 103.645 193.645 104.388 193.637L136.447 193.27Z" fill="#1A3CC1"/>
</svg>
